<svg xmlns="http://www.w3.org/2000/svg" width="512" height="512" viewBox="0 0 512 512" role="img" aria-label="atree avatar">
  <rect width="512" height="512" rx="0" fill="#ffffff"/>

  <g transform="translate(30 170)">
    <text
      x="0"
      y="96"
      fill="#0f6b45"
      font-family="Segoe Script, Brush Script MT, Comic Sans MS, cursive"
      font-size="138"
      font-weight="700"
      letter-spacing="-12"
    >atree</text>
  </g>

  <g transform="translate(405 178)">
    <path
      d="M38 8C16 8 0 22 0 42c0 13 7 24 18 31l-5 20 24-12h31c22 0 40-16 40-37S79 8 38 8Z"
      fill="#a6cf57"
    />
    <circle cx="38" cy="44" r="6" fill="#ffffff"/>
    <circle cx="58" cy="44" r="6" fill="#ffffff"/>
    <circle cx="78" cy="44" r="6" fill="#ffffff"/>
    <path
      d="M98 7c9 3 15 10 18 20"
      fill="none"
      stroke="#a6cf57"
      stroke-width="5"
      stroke-linecap="round"
    />
    <path
      d="M108 34c3 5 4 10 3 16"
      fill="none"
      stroke="#a6cf57"
      stroke-width="5"
      stroke-linecap="round"
    />
  </g>
</svg>
