<svg xmlns="http://www.w3.org/2000/svg" width="512" height="512" viewBox="0 0 512 512" role="img" aria-label="atree default avatar">
  <rect width="512" height="512" fill="#ffffff"/>

  <g fill="none" stroke="#245943" stroke-linecap="round">
    <path d="M381 88c23 8 39 23 48 45" stroke-width="12"/>
    <path d="M435 161v18" stroke-width="10"/>
    <path d="M70 398c105-12 263-17 373 0" stroke-width="11"/>
  </g>

  <path
    d="M106 220c0-78 71-130 162-130 88 0 146 44 146 116 0 76-62 124-155 124-91 0-153-44-153-110Z"
    fill="#245943"
  />

  <path d="M263 321l-8 64" fill="none" stroke="#245943" stroke-width="17" stroke-linecap="round"/>

  <circle cx="193" cy="219" r="15" fill="#ffffff"/>
  <circle cx="254" cy="211" r="19" fill="#ffffff"/>
  <circle cx="324" cy="201" r="25" fill="#ef904f"/>
</svg>
